<svg width="303" height="140" viewBox="0 0 303 140" fill="none" xmlns="http://www.w3.org/2000/svg">
<g filter="url(#filter0_d_19_21)">
<path d="M17.821 28.9859C20.5413 28.9859 22.2982 33.2113 23.0916 41.662L23.7717 50.7887C23.7717 57.662 22.5249 75.5775 20.0312 104.535H21.0514V105.042L21.7315 104.535H23.0916L42.9841 106.056H44.3442L52.8453 103.521H54.0354C55.849 104.648 57.0958 106.225 57.7759 108.254C57.7759 112.535 52.9586 115.183 43.3241 116.197L25.982 114.507H22.7516L14.5906 116.704C11.5302 115.577 10 113.775 10 111.296L13.5704 53.3239V50.7887L12.5503 33.8873C12.5503 31.0704 14.3072 29.4366 17.821 28.9859Z" fill="#31CF34"/>
<path d="M85.0523 23.9155L89.3029 23.2394H91.0031C93.27 23.2394 95.7636 24.6479 98.484 27.4648C103.471 27.4648 110.555 33.662 119.737 46.0563C127.558 60.7042 131.468 73.7183 131.468 85.0986C131.468 100.648 125.801 111.014 114.466 116.197L103.755 118.394C86.7525 118.394 74.511 105.718 67.0301 80.3662C65.3299 73.7183 64.4798 67.2394 64.4798 60.9296V59.2394C64.4798 40.1972 71.3373 28.4225 85.0523 23.9155ZM83.5221 40.1408L79.7817 38.6197C76.2679 42.7887 74.511 48.8169 74.511 56.7042V61.2676C74.511 82.1127 81.5952 97.2676 95.7637 106.732L100.524 107.746H106.985C112.879 107.746 117.13 104.084 119.737 96.7606L120.757 89.3239V84.0845C120.757 67.1831 114.013 52.0282 100.524 38.6197L93.5534 36.5915H93.2133C90.9464 36.5915 87.716 37.7746 83.5221 40.1408Z" fill="#31CF34"/>
<path d="M151.264 22.0563C156.591 23.7465 166.735 44.3099 181.697 83.7465L184.248 86.7887V77.3239C184.248 52.1972 190.482 34.4507 202.95 24.0845C205.784 24.0845 207.541 26 208.221 29.831C199.72 42.4507 195.469 52.6479 195.469 60.4225C194.902 60.4225 194.562 63.9718 194.449 71.0704V80.0282C194.449 87.8028 195.299 98.9014 196.999 113.324C195.979 116.141 194.166 117.549 191.559 117.549C188.952 117.549 185.268 112.254 180.507 101.662C174.726 92.5352 168.379 78.676 161.465 60.0845H160.785V61.0986L161.805 82.5634C161.805 104.761 157.554 119.07 149.053 125.493L144.803 126C141.289 126 138.342 122.789 135.962 116.366C136.755 112.873 138.512 111.127 141.232 111.127H142.252L145.483 113.831H145.993C149.96 108.535 151.944 98.507 151.944 83.7465C151.944 68.8732 149.79 50.0563 145.483 27.2958C145.483 24.2535 147.41 22.507 151.264 22.0563Z" fill="#31CF34"/>
<path d="M230.432 6C232.473 6 234.059 7.40845 235.193 10.2253C230.319 23.0704 227.882 39.8028 227.882 60.4225V78.8451H228.222C234.569 72.5352 244.374 53.0422 257.636 20.3662C261.036 16.0845 263.643 13.9437 265.457 13.9437H266.137C268.064 13.9437 269.594 15.0141 270.727 17.1549V20.3662C267.554 22.2817 259.789 38.2253 247.434 68.1972L233.493 88.9859V89.3239C246.301 102.507 259.619 109.099 273.448 109.099H279.908C284.102 109.099 286.936 108.704 288.409 107.915C291.47 109.155 293 110.958 293 113.324V114.676C293 117.493 288.069 118.901 278.208 118.901H275.658C259.449 118.901 243.977 112.254 229.242 98.9577H228.222V118.563C228.222 122.394 226.465 124.31 222.951 124.31C219.778 124.31 218.191 122.394 218.191 118.563V98.4507C213.997 95.2958 211.9 91.9155 211.9 88.3099C211.9 85.2676 213.827 83.7465 217.681 83.7465V59.7465C217.681 37.8873 220.514 20.5352 226.182 7.69014C227.655 6.56338 229.072 6 230.432 6Z" fill="#31CF34"/>
</g>
<defs>
<filter id="filter0_d_19_21" x="0.6" y="0.6" width="301.8" height="138.8" filterUnits="userSpaceOnUse" color-interpolation-filters="sRGB">
<feFlood flood-opacity="0" result="BackgroundImageFix"/>
<feColorMatrix in="SourceAlpha" type="matrix" values="0 0 0 0 0 0 0 0 0 0 0 0 0 0 0 0 0 0 127 0" result="hardAlpha"/>
<feOffset dy="4"/>
<feGaussianBlur stdDeviation="4.7"/>
<feComposite in2="hardAlpha" operator="out"/>
<feColorMatrix type="matrix" values="0 0 0 0 0 0 0 0 0 0 0 0 0 0 0 0 0 0 0.25 0"/>
<feBlend mode="normal" in2="BackgroundImageFix" result="effect1_dropShadow_19_21"/>
<feBlend mode="normal" in="SourceGraphic" in2="effect1_dropShadow_19_21" result="shape"/>
</filter>
</defs>
</svg>
