<?xml version="1.0" encoding="UTF-8"?>
<!-- Generator: https://ezgif.com/png-to-svg -->
<svg version="1.1" xmlns="http://www.w3.org/2000/svg" width="186" height="40">
<path d="M0 0 C7 0 7 0 8.94 1.5 C9.29 2 9.64 2.49 10 3 C10 2.01 10 1.02 10 0 C12.64 0 15.28 0 18 0 C18 6.6 18 13.2 18 20 C15.36 20 12.72 20 10 20 C10.03 18.55 10.03 18.55 10.06 17.06 C10.36 14.13 10.36 14.13 9 13 C8.67 15.31 8.34 17.62 8 20 C5.36 20 2.72 20 0 20 C0 13.4 0 6.8 0 0 Z " fill="#00FCFC" transform="translate(55,10)"/>
<path d="M0 0 C2.42 -0.05 4.83 -0.09 7.25 -0.12 C7.93 -0.14 8.61 -0.16 9.32 -0.18 C13.04 -0.21 15.92 -0.21 19 2 C21.47 5.7 21.45 8.71 21 13 C20 15.5 20 15.5 19 17 C19.66 17.66 20.32 18.32 21 19 C21.69 26.11 21.69 26.11 19.12 29.44 C15.22 32.31 12.07 32.12 7.38 32.06 C6.67 32.06 5.96 32.05 5.23 32.05 C3.49 32.04 1.74 32.02 0 32 C0.66 30.04 0.66 30.04 2 28 C4.53 27.43 4.53 27.43 7.5 27.31 C11.4 27.23 11.4 27.23 15 26 C15 24.02 15 22.04 15 20 C12.69 19.34 10.38 18.68 8 18 C8 16.68 8 15.36 8 14 C10.31 13.34 12.62 12.68 15 12 C15 10.02 15 8.04 15 6 C11.74 4.37 8.13 4.71 4.53 4.57 C2 4 2 4 0.66 1.96 C0.44 1.31 0.22 0.67 0 0 Z " fill="#FDA706" transform="translate(157,4)"/>
<path d="M0 0 C6 0 6 0 9 2 C9 1.34 9 0.68 9 0 C11.64 0 14.28 0 17 0 C17 6.6 17 13.2 17 20 C14.36 20 11.72 20 9 20 C9.02 18.87 9.04 17.73 9.06 16.56 C9.42 13.18 9.42 13.18 8 12 C7.67 14.64 7.34 17.28 7 20 C4.69 20 2.38 20 0 20 C0 13.4 0 6.8 0 0 Z " fill="#00FCFC" transform="translate(132,10)"/>
<path d="M0 0 C2.75 -0.36 2.75 -0.36 6 -0.31 C7.61 -0.31 7.61 -0.31 9.25 -0.3 C12 0 12 0 14 2 C14.2 4.71 14.28 7.29 14.25 10 C14.26 10.74 14.27 11.47 14.27 12.23 C14.25 17.75 14.25 17.75 12 20 C9.25 20.27 9.25 20.27 6 20.25 C4.39 20.26 4.39 20.26 2.75 20.27 C-0 20 -0 20 -2 18 C-2.2 15.48 -2.28 13.08 -2.25 10.56 C-2.26 9.88 -2.27 9.2 -2.27 8.5 C-2.26 4.79 -2.11 3.16 0 0 Z M4 6 C4 8.64 4 11.28 4 14 C5.65 14 7.3 14 9 14 C9 11.36 9 8.72 9 6 C7.35 6 5.7 6 4 6 Z " fill="#00FEFE" transform="translate(2,10)"/>
<path d="M0 0 C2.31 0 4.62 0 7 0 C6.67 4.62 6.34 9.24 6 14 C7.32 14 8.64 14 10 14 C9.67 9.38 9.34 4.76 9 0 C11.31 0 13.62 0 16 0 C16.05 2.96 16.09 5.92 16.12 8.88 C16.14 9.72 16.16 10.56 16.18 11.43 C16.18 12.23 16.19 13.04 16.2 13.87 C16.21 14.61 16.22 15.35 16.23 16.12 C16 18 16 18 14 20 C11.25 20.3 11.25 20.3 8 20.31 C6.93 20.33 5.86 20.35 4.75 20.36 C3.84 20.24 2.94 20.12 2 20 C-0.03 16.95 -0.25 16.4 -0.2 12.99 C-0.19 12.23 -0.18 11.47 -0.18 10.69 C-0.16 9.91 -0.14 9.12 -0.12 8.31 C-0.12 7.52 -0.11 6.72 -0.1 5.9 C-0.07 3.93 -0.04 1.97 0 0 Z " fill="#00FDFD" transform="translate(110,10)"/>
<path d="M0 0 C9.96 -0.2 9.96 -0.2 13 0 C15 2 15 2 15.23 5.88 C15.23 7.44 15.21 9 15.19 10.56 C15.19 11.36 15.19 12.15 15.19 12.97 C15.14 18.86 15.14 18.86 14 20 C9.33 20.14 4.67 20.04 0 20 C0 13.4 0 6.8 0 0 Z M6 6 C6 8.64 6 11.28 6 14 C7.32 14 8.64 14 10 14 C10 11.36 10 8.72 10 6 C8.68 6 7.36 6 6 6 Z " fill="#00FDFD" transform="translate(22,10)"/>
<path d="M0 0 C4.62 0 9.24 0 14 0 C14 2.31 14 4.62 14 7 C11.69 6.67 9.38 6.34 7 6 C7 6.66 7 7.32 7 8 C8.98 8 10.96 8 13 8 C12.34 9.65 11.68 11.3 11 13 C9.68 13 8.36 13 7 13 C7.33 15.31 7.66 17.62 8 20 C5.36 20 2.72 20 0 20 C0 13.4 0 6.8 0 0 Z " fill="#00FEFE" transform="translate(90,10)"/>
<path d="M0 0 C2.64 0 5.28 0 8 0 C8 6.6 8 13.2 8 20 C5.36 20 2.72 20 0 20 C0 13.4 0 6.8 0 0 Z " fill="#00FEFE" transform="translate(42,10)"/>
<path d="M0 0 C1.65 0 3.3 0 5 0 C5 1.32 5 2.64 5 4 C3.68 4 2.36 4 1 4 C1 7.96 1 11.92 1 16 C2.65 16 4.3 16 6 16 C6.66 17.32 7.32 18.64 8 20 C4.04 20 0.08 20 -4 20 C-4 14.39 -4 8.78 -4 3 C-2.68 3 -1.36 3 0 3 C0 2.01 0 1.02 0 0 Z " fill="#FEA805" transform="translate(161,9)"/>
<path d="M0 0 C1.65 0.33 3.3 0.66 5 1 C5 1.99 5 2.98 5 4 C3.02 4.99 3.02 4.99 1 6 C0.34 5.34 -0.32 4.68 -1 4 C-0.62 1.88 -0.62 1.88 0 0 Z " fill="#00FEFE" transform="translate(79,18)"/>
</svg>
