<svg width="161" height="80" viewBox="0 0 161 80" fill="none" xmlns="http://www.w3.org/2000/svg">
<g filter="url(#filter0_d_4_10)">
<path d="M13.8967 17.493C15.252 17.493 16.1274 19.6056 16.5227 23.831L16.8615 28.3944C16.8615 31.831 16.2403 40.7887 14.9979 55.2676H15.5062V55.5211L15.845 55.2676H16.5227L26.4338 56.0282H27.1114L31.347 54.7606H31.9399C32.8435 55.3239 33.4647 56.1127 33.8035 57.1268C33.8035 59.2676 31.4034 60.5915 26.6032 61.0986L17.9628 60.2535H16.3533L12.2872 61.3521C10.7624 60.7887 10 59.8873 10 58.6479L11.7789 29.662V28.3944L11.2707 19.9437C11.2707 18.5352 12.146 17.7183 13.8967 17.493Z" fill="white"/>
<path d="M47.3936 14.9577L49.5113 14.6197H50.3584C51.4879 14.6197 52.7303 15.3239 54.0857 16.7324C56.5705 16.7324 60.1001 19.831 64.6744 26.0282C68.5711 33.3521 70.5194 39.8591 70.5194 45.5493C70.5194 53.3239 67.6958 58.507 62.0484 61.0986L56.7117 62.1972C48.2407 62.1972 42.1415 55.8591 38.4143 43.1831C37.5672 39.8592 37.1436 36.6197 37.1436 33.4648V32.6197C37.1436 23.0986 40.5603 17.2113 47.3936 14.9577ZM46.6312 23.0704L44.7675 22.3099C43.0169 24.3944 42.1415 27.4084 42.1415 31.3521V33.6338C42.1415 44.0563 45.6711 51.6338 52.7303 56.3662L55.1022 56.8732H58.3212C61.2578 56.8732 63.3755 55.0422 64.6744 51.3803L65.1827 47.662V45.0423C65.1827 36.5915 61.8225 29.0141 55.1022 22.3099L51.6291 21.2958H51.4596C50.3302 21.2958 48.7207 21.8873 46.6312 23.0704Z" fill="white"/>
<path d="M80.3822 14.0282C83.0364 14.8732 88.0908 25.1549 95.5453 44.8732L96.816 46.3944V41.662C96.816 29.0986 99.922 20.2254 106.134 15.0423C107.546 15.0423 108.421 16 108.76 17.9155C104.525 24.2253 102.407 29.3239 102.407 33.2113C102.124 33.2113 101.955 34.9859 101.899 38.5352V43.0141C101.899 46.9014 102.322 52.4507 103.169 59.662C102.661 61.0704 101.757 61.7746 100.459 61.7746C99.1596 61.7746 97.3242 59.1268 94.9523 53.831C92.0722 49.2676 88.9097 42.338 85.4648 33.0422H85.126V33.5493L85.6342 44.2817C85.6342 55.3803 83.5165 62.5352 79.281 65.7465L77.1632 66C75.4125 66 73.9442 64.3944 72.7583 61.1831C73.1536 59.4366 74.0289 58.5634 75.3843 58.5634H75.8926L77.5021 59.9155H77.7562C79.7328 57.2676 80.721 52.2535 80.721 44.8732C80.721 37.4366 79.648 28.0282 77.5021 16.6479C77.5021 15.1268 78.4621 14.2535 80.3822 14.0282Z" fill="white"/>
<path d="M119.827 6C120.843 6 121.634 6.70422 122.199 8.11267C119.77 14.5352 118.556 22.9014 118.556 33.2113V42.4225H118.725C121.888 39.2676 126.773 29.5211 133.38 13.1831C135.075 11.0423 136.373 9.97183 137.277 9.97183H137.616C138.576 9.97183 139.338 10.507 139.903 11.5775V13.1831C138.322 14.1408 134.453 22.1127 128.298 37.0986L121.351 47.493V47.662C127.733 54.2535 134.369 57.5493 141.258 57.5493H144.477C146.567 57.5493 147.979 57.3521 148.713 56.9577C150.238 57.5775 151 58.4789 151 59.662V60.338C151 61.7465 148.543 62.4507 143.63 62.4507H142.36C134.284 62.4507 126.575 59.1268 119.234 52.4789H118.725V62.2817C118.725 64.1972 117.85 65.1549 116.099 65.1549C114.518 65.1549 113.728 64.1972 113.728 62.2817V52.2253C111.638 50.6479 110.593 48.9577 110.593 47.1549C110.593 45.6338 111.553 44.8732 113.473 44.8732V32.8732C113.473 21.9437 114.885 13.2676 117.709 6.84507C118.443 6.28169 119.149 6 119.827 6Z" fill="white"/>
</g>
<defs>
<filter id="filter0_d_4_10" x="0.6" y="0.6" width="159.8" height="78.8" filterUnits="userSpaceOnUse" color-interpolation-filters="sRGB">
<feFlood flood-opacity="0" result="BackgroundImageFix"/>
<feColorMatrix in="SourceAlpha" type="matrix" values="0 0 0 0 0 0 0 0 0 0 0 0 0 0 0 0 0 0 127 0" result="hardAlpha"/>
<feOffset dy="4"/>
<feGaussianBlur stdDeviation="4.7"/>
<feComposite in2="hardAlpha" operator="out"/>
<feColorMatrix type="matrix" values="0 0 0 0 0 0 0 0 0 0 0 0 0 0 0 0 0 0 0.25 0"/>
<feBlend mode="normal" in2="BackgroundImageFix" result="effect1_dropShadow_4_10"/>
<feBlend mode="normal" in="SourceGraphic" in2="effect1_dropShadow_4_10" result="shape"/>
</filter>
</defs>
</svg>
