<svg xmlns="http://www.w3.org/2000/svg" width="95" height="43" viewBox="0 0 95 43" fill="none">
<path d="M8.6625 2.23753C9.70006 2.48851 10.2085 3.02596 10.1877 3.84988L9.79014 6.31319L9.77175 7.04349C9.73025 8.69132 9.87268 10.4375 10.199 12.282L10.3108 12.2848C14.6658 11.0828 17.3648 10.495 18.4081 10.5213C19.481 10.8481 20.0076 11.4048 19.9878 12.1912C19.9557 13.4646 18.6543 14.0688 16.0835 14.0041L10.2188 15.9362C10.0915 20.9921 10.4587 27.8779 11.3203 36.5938C11.0713 37.5993 10.5183 38.0913 9.66139 38.0697L9.54962 38.0669C8.24558 38.034 7.63601 36.3323 7.72091 32.9617C7.29975 30.4403 7.02715 24.9809 6.90312 16.5835L5.89715 16.5581C2.40055 16.2452 0.670173 15.3772 0.706016 13.9541C0.716392 13.5421 1.12034 13.0464 1.91785 12.4669L2.47672 12.4809L5.03055 13.2198L6.81893 13.2649L6.49281 6.23015C6.56072 3.53368 7.28395 2.20281 8.6625 2.23753Z" fill="#D55900"/>
<path d="M24.2034 5.7206C25.2466 5.74688 25.7361 7.03334 25.672 9.58L26.0993 19.2592L26.3228 19.2649L29.1441 18.2679C32.2738 18.3467 34.0928 21.6153 34.6012 28.0738C34.8158 29.9154 34.8783 32.6152 34.7887 36.173L34.6741 40.7233C34.6382 42.1464 34.0987 42.8449 33.0555 42.8186L32.8319 42.813C31.8297 42.6378 31.3404 42.0821 31.364 41.1458L31.497 35.8653C31.7102 27.4014 31.0084 22.6994 29.3917 21.7593L29.0564 21.7508C27.9386 21.7227 27.0755 23.4248 26.4672 26.8571L26.3879 30.003C26.2464 35.6206 25.71 38.4177 24.7785 38.3942L23.7138 38.4798C22.6706 38.4536 22.1881 36.8862 22.2664 33.7778C22.4612 30.4849 22.7527 27.7941 23.1408 25.7053L22.4327 7.19373C22.4572 6.22001 23.0474 5.72896 24.2034 5.7206Z" fill="#D55900"/>
<path d="M46.869 16.1286C49.6261 16.198 51.6607 18.3103 52.9728 22.4656L53.1666 23.6509C53.0657 27.6582 51.0995 31.7121 47.268 35.8128C45.7428 37.1609 44.2164 37.8158 42.6888 37.7773C40.4533 37.721 38.9024 36.3891 38.0361 33.7815C37.7309 32.5746 37.5897 31.5218 37.6123 30.6229L37.6293 29.9488C37.7783 24.0316 40.0338 19.5914 44.3959 16.6284C45.1505 16.2726 45.9748 16.106 46.869 16.1286ZM40.9125 30.5936C40.8483 33.1403 41.4683 34.43 42.7723 34.4629C45.4921 34.5314 47.8344 31.0865 49.7992 24.1282L49.8261 23.0609C49.2512 20.723 48.1068 19.5324 46.3929 19.4893C45.7223 19.4724 45.3752 19.9321 45.3516 20.8684C45.3356 21.505 44.5777 21.9918 43.0779 22.3288C41.7182 24.5056 40.9964 27.2605 40.9125 30.5936Z" fill="#D55900"/>
<path d="M64.7704 16.5794C67.5275 16.6489 69.562 18.7612 70.8741 22.9165L71.0679 24.1018C70.967 28.109 69.0008 32.163 65.1694 36.2636C63.6441 37.6118 62.1177 38.2666 60.5902 38.2282C58.3547 38.1719 56.8038 36.8399 55.9374 34.2323C55.6322 33.0255 55.491 31.9726 55.5136 31.0738L55.5306 30.3997C55.6796 24.4825 57.9352 20.0423 62.2972 17.0792C63.0518 16.7235 63.8762 16.5569 64.7704 16.5794ZM58.8138 31.0445C58.7497 33.5912 59.3696 34.8809 60.6736 34.9138C63.3935 34.9823 65.7358 31.5374 67.7005 24.5791L67.7274 23.5117C67.1525 21.1738 66.0081 19.9833 64.2943 19.9401C63.6236 19.9233 63.2765 20.3829 63.2529 21.3192C63.2369 21.9559 62.479 22.4427 60.9792 22.7797C59.6196 24.9564 58.8977 27.7114 58.8138 31.0445Z" fill="#D55900"/>
<path d="M80.9385 19.2351C84.0988 19.577 85.6431 21.1711 85.5715 24.0174L85.6649 24.7505L85.3323 33.5112C85.3069 34.5224 85.85 35.9039 86.9616 37.6557L86.9587 37.768C86.6333 38.8466 86.0794 39.376 85.297 39.3563C83.0115 38.3244 81.9084 36.2355 81.9876 33.0897L82.006 32.3594L81.8412 32.2428L82.0145 32.0223L82.0173 31.91L82.3802 24.1619C82.4076 23.0758 81.9555 22.521 81.0241 22.4976L80.3534 22.4807C78.4717 23.1828 77.4369 27.2602 77.2492 34.7129C77.1842 37.297 76.4996 38.5726 75.1956 38.5398C74.1896 38.5145 73.684 37.8647 73.6788 36.5904L73.8203 30.9728C74.0033 23.7073 74.7282 20.0905 75.995 20.1224L76.5581 19.968L77.7275 20.166C78.7504 19.5173 79.8207 19.207 80.9385 19.2351Z" fill="#D55900"/>
<path d="M91.1101 0.266807C92.1056 0.704102 92.5935 1.31598 92.5737 2.10245C92.6039 12.746 92.839 20.4342 93.279 25.1671C92.8829 26.094 92.3308 26.5485 91.6229 26.5307C90.2444 26.496 89.6112 24.2503 89.7235 19.7936C89.4297 18.1374 89.3007 12.1569 89.3365 1.85228C89.3601 0.916013 89.9513 0.38752 91.1101 0.266807ZM90.472 38.9246C90.8365 37.772 91.4473 37.2065 92.3042 37.2281C93.1984 37.2507 93.7985 37.8466 94.1046 39.016C93.6674 40.0918 93.0762 40.6203 92.3311 40.6015L92.1634 40.5973C91.4183 40.5785 90.8544 40.021 90.472 38.9246Z" fill="#D55900"/>
</svg>